<?xml version="1.0" encoding="UTF-8"?>
<svg version="1.1" xmlns="http://www.w3.org/2000/svg" width="146" height="72">
<path d="M0 0 C2.3737793 2.18408203 2.3737793 2.18408203 5 5 C5.81186768 5.81710449 6.62373535 6.63420898 7.46020508 7.47607422 C8.30478271 8.3270166 9.14936035 9.17795898 10.01953125 10.0546875 C11.45834458 11.50088274 12.89764481 12.94659145 14.3371582 14.39208984 C15.31625767 15.376212 16.29445695 16.36123062 17.27172852 17.34716797 C22.55247178 22.67328915 27.83739544 27.9034525 33.64331055 32.66455078 C34.31487183 33.32559814 34.31487183 33.32559814 35 34 C35 34.66 35 35.32 35 36 C35.83772949 36.34768433 35.83772949 36.34768433 36.69238281 36.70239258 C39.60499328 38.34019671 41.58190794 40.37538715 43.921875 42.76171875 C44.38555481 43.23060013 44.84923462 43.69948151 45.32696533 44.18257141 C46.80617025 45.67951598 48.27852701 47.18295749 49.75 48.6875 C51.67879373 50.65321305 53.61153004 52.61495667 55.546875 54.57421875 C56.47048828 55.51056152 57.39410156 56.4469043 58.34570312 57.41162109 C61.27090372 60.26417598 64.32423187 62.87050142 67.54785156 65.37817383 C69 67 69 67 70 72 C21.82 72 -26.36 72 -76 72 C-72.41065735 67.81243358 -68.99893754 63.8612361 -65.125 60 C-64.34382813 59.21625 -63.56265625 58.4325 -62.7578125 57.625 C-60.686216 55.65316877 -58.60146011 53.79164385 -56.4296875 51.9375 C-50.66094973 46.92898348 -45.36357622 41.43310406 -40 36 C-28.27686162 24.12489501 -28.27686162 24.12489501 -21.91259766 18.69873047 C-17.33438286 14.63245289 -13.15891089 10.11188587 -8.91601562 5.70117188 C-8.19478516 4.96576172 -7.47355469 4.23035156 -6.73046875 3.47265625 C-6.08489014 2.80500244 -5.43931152 2.13734863 -4.77416992 1.44946289 C-3 0 -3 0 0 0 Z " fill="#FEFEFE" transform="translate(76,0)"/>
<path d="M0 0 C2 0 2 0 3.65625 1.609375 C4.2646875 2.31578125 4.873125 3.0221875 5.5 3.75 C6.1084375 4.44609375 6.716875 5.1421875 7.34375 5.859375 C8.87976963 7.84460792 9.9723966 9.71872045 11 12 C15.45805787 8.2452765 19.38263487 4.59127113 23 0 C23.66 0 24.32 0 25 0 C23.42789712 3.61752706 21.22276812 6.29838306 18.625 9.25 C17.85414062 10.14203125 17.08328125 11.0340625 16.2890625 11.953125 C14 14 14 14 10 14 C8.18359375 12.390625 8.18359375 12.390625 6.4375 10.25 C5.85871094 9.55390625 5.27992187 8.8578125 4.68359375 8.140625 C4.12800781 7.43421875 3.57242188 6.7278125 3 6 C2.43410156 5.29359375 1.86820313 4.5871875 1.28515625 3.859375 C0 2 0 2 0 0 Z " fill="#879B71" transform="translate(62,36)"/>
</svg>
