<?xml version="1.0" encoding="UTF-8"?>
<svg version="1.1" xmlns="http://www.w3.org/2000/svg" width="512" height="512">
<path d="M0 0 C2.75617774 -0.0032296 5.51232893 -0.01241046 8.26849365 -0.02124023 C14.94713625 -0.03893041 21.62559799 -0.03522823 28.30424738 -0.02358967 C33.73712796 -0.01451791 39.16995823 -0.01334743 44.60284424 -0.01768494 C45.37913292 -0.01829787 46.15542159 -0.0189108 46.95523417 -0.01954231 C48.5327592 -0.02082134 50.11028422 -0.0221182 51.68780923 -0.02343267 C66.44439205 -0.03481063 81.20087511 -0.02176865 95.95744157 -0.00023121 C108.59081825 0.01763725 121.22404785 0.01453236 133.85742188 -0.00390625 C148.56492974 -0.02536236 163.27235041 -0.03371225 177.97987175 -0.0214572 C179.55125807 -0.02018314 181.12264441 -0.01892565 182.69403076 -0.01768494 C183.46697436 -0.01706783 184.23991796 -0.01645073 185.03628409 -0.01581493 C190.45611598 -0.01237621 195.87589208 -0.01815829 201.29571533 -0.02760315 C207.91004588 -0.0388774 214.52418681 -0.03567008 221.13849592 -0.01448017 C224.50663052 -0.00404181 227.87419195 -0.00191344 231.24236298 -0.01307678 C247.96498585 -0.06336938 262.94799941 0.2968416 278.0234375 8.33007812 C278.68770752 8.67264648 279.35197754 9.01521484 280.03637695 9.36816406 C285.38095571 12.20137181 290.07581784 15.55778378 294.6484375 19.51757812 C295.83759766 20.41283203 295.83759766 20.41283203 297.05078125 21.32617188 C306.58887282 29.37259198 313.57046902 40.81609494 317.6484375 52.51757812 C317.98065559 53.42015854 318.31287369 54.32273895 318.655159 55.25267029 C322.78652417 68.23575085 322.21075907 81.36928133 322.16601562 94.86914062 C322.16924523 97.62531836 322.17842608 100.38146956 322.18725586 103.13763428 C322.20494604 109.81627688 322.20124385 116.49473862 322.1896053 123.173388 C322.18053353 128.60626859 322.17936306 134.03909886 322.18370056 139.47198486 C322.18431349 140.24827354 322.18492643 141.02456222 322.18555793 141.82437479 C322.18683697 143.40189983 322.18813382 144.97942485 322.1894483 146.55694985 C322.20082625 161.31353268 322.18778427 176.07001574 322.16624683 190.82658219 C322.14837837 203.45995887 322.15148327 216.09318847 322.16992188 228.7265625 C322.19137798 243.43407037 322.19972788 258.14149104 322.18747282 272.84901237 C322.18619876 274.4203987 322.18494128 275.99178504 322.18370056 277.56317139 C322.18277491 278.72258678 322.18277491 278.72258678 322.18183056 279.90542471 C322.17839184 285.32525661 322.18417391 290.74503271 322.19361877 296.16485596 C322.20489302 302.77918651 322.20168571 309.39332743 322.1804958 316.00763655 C322.17005743 319.37577114 322.16792906 322.74333258 322.17909241 326.1115036 C322.229385 342.83412648 321.86917403 357.81714003 313.8359375 372.89257812 C313.49336914 373.55684814 313.15080078 374.22111816 312.79785156 374.90551758 C309.96464382 380.25009634 306.60823185 384.94495846 302.6484375 389.51757812 C302.04 390.32195312 301.4315625 391.12632812 300.8046875 391.95507812 C294.67295512 399.24206444 286.18394384 404.57218359 277.7734375 408.89257812 C277.18723633 409.20171143 276.60103516 409.51084473 275.99707031 409.8293457 C260.29439817 417.4994971 244.3878453 417.09180194 227.296875 417.03515625 C224.54069726 417.03838585 221.78454607 417.04756671 219.02838135 417.05639648 C212.34973875 417.07408666 205.67127701 417.07038448 198.99262762 417.05874592 C193.55974704 417.04967416 188.12691677 417.04850368 182.69403076 417.05284119 C181.91774208 417.05345412 181.14145341 417.05406705 180.34164083 417.05469856 C178.7641158 417.05597759 177.18659078 417.05727445 175.60906577 417.05858892 C160.85248295 417.06996688 146.09599989 417.0569249 131.33943343 417.03538746 C118.70605675 417.017519 106.07282715 417.02062389 93.43945312 417.0390625 C78.73194526 417.06051861 64.02452459 417.0688685 49.31700325 417.05661345 C47.74561693 417.05533939 46.17423059 417.0540819 44.60284424 417.05284119 C43.82990064 417.05222408 43.05695704 417.05160698 42.26059091 417.05097118 C36.84075902 417.04753246 31.42098292 417.05331454 26.00115967 417.0627594 C19.38682912 417.07403365 12.77268819 417.07082633 6.15837908 417.04963642 C2.79024448 417.03919806 -0.57731695 417.03706969 -3.94548798 417.04823303 C-20.66811085 417.09852563 -35.65112441 416.73831465 -50.7265625 408.70507812 C-51.39083252 408.36250977 -52.05510254 408.01994141 -52.73950195 407.66699219 C-58.08408071 404.83378444 -62.77894284 401.47737247 -67.3515625 397.51757812 C-68.14433594 396.92074219 -68.93710938 396.32390625 -69.75390625 395.70898438 C-79.29199782 387.66256427 -86.27359402 376.21906131 -90.3515625 364.51757812 C-90.68378059 363.61499771 -91.01599869 362.7124173 -91.358284 361.78248596 C-95.48964917 348.7994054 -94.91388407 335.66587492 -94.86914062 322.16601562 C-94.87237023 319.40983789 -94.88155108 316.65368669 -94.89038086 313.89752197 C-94.90807104 307.21887937 -94.90436885 300.54041763 -94.8927303 293.86176825 C-94.88365853 288.42888766 -94.88248806 282.99605739 -94.88682556 277.56317139 C-94.88743849 276.78688271 -94.88805143 276.01059403 -94.88868293 275.21078146 C-94.88996197 273.63325642 -94.89125882 272.0557314 -94.8925733 270.4782064 C-94.90395125 255.72162357 -94.89090927 240.96514051 -94.86937183 226.20857406 C-94.85150337 213.57519738 -94.85460827 200.94196778 -94.87304688 188.30859375 C-94.89450298 173.60108588 -94.90285288 158.89366521 -94.89059782 144.18614388 C-94.88932376 142.61475755 -94.88806628 141.04337121 -94.88682556 139.47198486 C-94.88589991 138.31256947 -94.88589991 138.31256947 -94.88495556 137.12973154 C-94.88151684 131.70989964 -94.88729891 126.29012354 -94.89674377 120.87030029 C-94.90801802 114.25596974 -94.90481071 107.64182882 -94.8836208 101.0275197 C-94.87318243 97.65938511 -94.87105406 94.29182367 -94.88221741 90.92365265 C-94.93251 74.20102977 -94.57229903 59.21801622 -86.5390625 44.14257812 C-86.02520996 43.1461731 -86.02520996 43.1461731 -85.50097656 42.12963867 C-82.66776882 36.78505991 -79.31135685 32.09019779 -75.3515625 27.51757812 C-74.75472656 26.72480469 -74.15789062 25.93203125 -73.54296875 25.11523438 C-65.49654865 15.57714281 -54.05304569 8.59554661 -42.3515625 4.51757812 C-41.44898209 4.18536003 -40.54640167 3.85314194 -39.61647034 3.51085663 C-26.63338978 -0.62050854 -13.49985929 -0.04474344 0 0 Z " fill="#3FC1C9" transform="translate(142.3515625,47.482421875)"/>
<path d="M0 0 C1.17743774 0.00628418 1.17743774 0.00628418 2.37866211 0.01269531 C19.71366396 0.34657302 35.40816371 8.16097819 47.93359375 19.90234375 C60.29852656 32.76771229 66.77517429 49.1694902 66.60375977 66.88232422 C66.23896526 78.49603118 63.11454024 88.81432226 58.25 99.3125 C58.85585938 99.83457031 59.46171875 100.35664063 60.0859375 100.89453125 C79.23952695 117.7202229 93.64435366 138.70643904 96.0859375 164.75 C97.13483146 181.13272472 97.13483146 181.13272472 93.25 186.3125 C89.21958299 190.33190494 85.68021862 192.43655155 79.9375 192.625 C75.30773338 192.56487316 72.8130849 191.37841027 69.25 188.3125 C64.98830353 183.59007958 64.2013262 180.3733023 64 174.125 C62.76895616 155.79191638 54.80117739 139.68691301 41.25 127.3125 C38.89015733 125.46633218 37.087001 124.51132122 34.25 123.3125 C31.10614093 124.01847867 31.10614093 124.01847867 28.1875 125.875 C14.26431653 133.03504076 -1.97776425 134.70182713 -17.125 130.625 C-23.21766168 128.657578 -29.02200327 126.16480858 -34.75 123.3125 C-48.79365307 133.42262987 -58.22576153 146.54624762 -62.30859375 163.51953125 C-63.01822125 168.00965213 -63.219493 172.51022321 -63.34375 177.05078125 C-63.96112248 182.00756993 -65.76446228 186.02167766 -69.75 189.125 C-74.56281592 192.63434494 -78.95728735 193.02667005 -84.75 192.3125 C-90.0535228 189.61070537 -93.84832298 186.01753105 -95.75 180.3125 C-97.28736511 156.10793775 -89.38876751 133.24697255 -73.8984375 114.6953125 C-70.0195939 110.39332232 -65.90757325 106.3428006 -61.75 102.3125 C-60.41439717 100.98144003 -59.08027874 99.64888094 -57.75 98.3125 C-58.07613281 97.65765625 -58.40226562 97.0028125 -58.73828125 96.328125 C-66.60199356 79.90479664 -68.34426804 63.26076626 -63.0078125 45.77734375 C-56.36859726 27.48857383 -44.230328 13.90413834 -26.75 5.3125 C-23.45769942 4.05829026 -20.17427716 3.12655362 -16.75 2.3125 C-15.5125 1.96445313 -14.275 1.61640625 -13 1.2578125 C-8.64084136 0.17413096 -4.47817167 -0.03295981 0 0 Z " fill="#E9E9E9" transform="translate(255.75,159.6875)"/>
</svg>
