<?xml version="1.0" encoding="UTF-8"?>
<svg version="1.1" xmlns="http://www.w3.org/2000/svg" width="395" height="115">
<path d="M0 0 C7.37512062 5.61800112 11.62465011 10.68694017 16.625 18.6875 C16.625 10.1075 16.625 1.5275 16.625 -7.3125 C19.615625 -7.51875 22.60625 -7.725 25.6875 -7.9375 C26.61570557 -8.02854004 27.54391113 -8.11958008 28.50024414 -8.21337891 C31.13328287 -8.30059357 33.11534865 -8.14316852 35.625 -7.3125 C38.7043676 -4.42358005 40.57410849 -0.97482698 42.625 2.6875 C43.62562753 4.35417991 44.62628282 6.02084339 45.62783813 7.68696594 C47.05810341 10.08681188 48.45442662 12.50558797 49.84963989 14.92593384 C51.69701109 18.12964354 53.55898744 21.32482583 55.421875 24.51953125 C55.78487198 25.1423851 56.14786896 25.76523895 56.52186584 26.40696716 C60.72710823 33.60341414 65.12771051 40.6708444 69.625 47.6875 C76.12042212 37.51034092 82.31656156 27.18140802 88.36181641 16.73046875 C89.46046742 14.8325948 90.57588754 12.94431037 91.70939636 11.06704712 C93.07528057 8.65732627 94.21608617 6.40242188 95.31425476 3.88412476 C99.89703372 -5.95896356 99.89703372 -5.95896356 104.44270515 -8.21439171 C109.70469291 -9.71161512 115.11895497 -9.59354426 120.546875 -9.55078125 C122.2965447 -9.57872134 124.04616327 -9.61004729 125.79571533 -9.64457703 C129.45542965 -9.69811867 133.10971242 -9.69428519 136.76953125 -9.65258789 C140.5059759 -9.61553776 144.22471518 -9.66390323 147.95898438 -9.79614258 C177.83880297 -10.84873653 177.83880297 -10.84873653 185.6003418 -5.11419678 C190.74992723 0.73281136 193.36893301 7.32639224 195.625 14.6875 C196.27685313 16.36001599 196.93930761 18.02857017 197.625 19.6875 C198.285 19.6875 198.945 19.6875 199.625 19.6875 C199.89304443 18.9665918 200.16108887 18.24568359 200.43725586 17.50292969 C201.62631577 14.6843811 203.01264986 12.23512237 204.62890625 9.640625 C205.49225586 8.25037109 205.49225586 8.25037109 206.37304688 6.83203125 C207.27120117 5.39923828 207.27120117 5.39923828 208.1875 3.9375 C208.79013672 2.96683594 209.39277344 1.99617187 210.01367188 0.99609375 C214.47241709 -6.15991709 214.47241709 -6.15991709 215.625 -7.3125 C217.18672745 -7.39935603 218.75229344 -7.41952219 220.31640625 -7.41015625 C221.26064453 -7.40693359 222.20488281 -7.40371094 223.17773438 -7.40039062 C224.17095703 -7.39201172 225.16417969 -7.38363281 226.1875 -7.375 C227.18458984 -7.37048828 228.18167969 -7.36597656 229.20898438 -7.36132812 C231.68104849 -7.34950007 234.15299518 -7.33301849 236.625 -7.3125 C235.19094155 -3.45109778 233.39353075 -0.01464215 231.30859375 3.53515625 C230.81622223 4.37584656 230.81622223 4.37584656 230.31390381 5.23352051 C229.23386412 7.07458753 228.14842809 8.91240092 227.0625 10.75 C226.30047705 12.04480515 225.53851513 13.33964622 224.77661133 14.63452148 C218.14807109 25.87940822 211.3820634 37.03947755 204.5859375 48.18359375 C200.09975873 55.54045083 195.66406635 62.92702494 191.23828125 70.3203125 C190.60720459 71.3707373 190.60720459 71.3707373 189.96337891 72.44238281 C188.97675923 74.09742743 188.00154515 75.75928408 187.03271484 77.42480469 C186.49984863 78.33391602 185.96698242 79.24302734 185.41796875 80.1796875 C184.93223389 81.01612793 184.44649902 81.85256836 183.94604492 82.71435547 C182.625 84.6875 182.625 84.6875 180.625 85.6875 C178.12805433 85.78557565 175.65904411 85.82381951 173.16186523 85.81689453 C172.00803848 85.81952301 172.00803848 85.81952301 170.8309021 85.82220459 C168.28177654 85.8266152 165.73272004 85.82368818 163.18359375 85.8203125 C161.41764818 85.8209857 159.6517027 85.82195585 157.88575745 85.82321167 C154.18269978 85.82468751 150.4796662 85.82253746 146.77661133 85.81787109 C142.01921137 85.81216971 137.26186777 85.81545612 132.50446987 85.82144356 C128.85776847 85.82504867 125.21108054 85.82391089 121.56437874 85.82131577 C119.80961157 85.82064657 118.0548432 85.82147465 116.30007744 85.82379532 C113.85293183 85.82632149 111.4058789 85.82248197 108.95874023 85.81689453 C107.86078377 85.81993088 107.86078377 85.81993088 106.74064636 85.82302856 C101.73926354 85.80176354 101.73926354 85.80176354 100.625 84.6875 C100.50227151 83.09236107 100.44718957 81.49195068 100.41967773 79.89233398 C100.39973251 78.87135117 100.37978729 77.85036835 100.35923767 76.79844666 C100.33416893 75.13284447 100.33416893 75.13284447 100.30859375 73.43359375 C100.28781265 72.30301041 100.26703156 71.17242706 100.24562073 70.00758362 C100.18000203 66.38012015 100.12118323 62.75258167 100.0625 59.125 C100.01932649 56.67251814 99.9757126 54.220044 99.93164062 51.76757812 C99.82430816 45.74096573 99.7225651 39.71427799 99.625 33.6875 C98.46546939 35.71055223 97.30676494 37.73407146 96.1484375 39.7578125 C95.78801361 40.38656281 95.42758972 41.01531311 95.0562439 41.66311646 C92.8409578 45.53493553 90.65991316 49.4233513 88.50543213 53.32928467 C87.13030742 55.80242081 85.72233686 58.25588341 84.30761719 60.70654297 C83.59259342 61.96130075 82.8913909 63.22402006 82.203125 64.49365234 C76.5847563 74.82107354 76.5847563 74.82107354 72.06933594 76.81738281 C69.08775508 77.10649904 67.36403103 76.90400677 64.625 75.6875 C61.91361153 73.0490873 60.35198972 70.02659653 58.625 66.6875 C57.65750767 65.08303727 56.68092489 63.48402084 55.6953125 61.890625 C54.71124924 60.24094865 53.72948718 58.58989747 52.75 56.9375 C48.11419435 49.1403498 43.38032158 41.41489757 38.625 33.6875 C38.295 50.8475 37.965 68.0075 37.625 85.6875 C31.025 85.6875 24.425 85.6875 17.625 85.6875 C16.625 84.6875 16.625 84.6875 16.51147461 82.09545898 C16.51671143 80.96954346 16.52194824 79.84362793 16.52734375 78.68359375 C16.53056641 77.46865234 16.53378906 76.25371094 16.53710938 75.00195312 C16.54548828 73.72255859 16.55386719 72.44316406 16.5625 71.125 C16.56701172 69.84173828 16.57152344 68.55847656 16.57617188 67.23632812 C16.58800455 64.05333978 16.60448932 60.87044238 16.625 57.6875 C16.23538086 58.36006836 15.84576172 59.03263672 15.44433594 59.72558594 C14.92129883 60.61536133 14.39826172 61.50513672 13.859375 62.421875 C13.08932129 63.74010254 13.08932129 63.74010254 12.30371094 65.08496094 C5.45499594 75.70266046 -5.24523094 81.9326033 -17.375 84.6875 C-32.14045621 87.53697401 -46.57781676 84.56698837 -59.375 76.6875 C-66.74196189 71.64561699 -71.41515832 64.60718336 -75.375 56.6875 C-75.705 65.5975 -76.035 74.5075 -76.375 83.6875 C-83.305 83.6875 -90.235 83.6875 -97.375 83.6875 C-98.10895079 78.54984448 -98.44990207 74.51552024 -98.25390625 69.44140625 C-98.21080322 68.2407251 -98.1677002 67.04004395 -98.12329102 65.80297852 C-98.03132446 63.54925415 -98.03132446 63.54925415 -97.9375 61.25 C-97.6590625 54.0415625 -97.6590625 54.0415625 -97.375 46.6875 C-110.575 46.6875 -123.775 46.6875 -137.375 46.6875 C-137.375 58.8975 -137.375 71.1075 -137.375 83.6875 C-144.305 83.6875 -151.235 83.6875 -158.375 83.6875 C-158.375 53.9875 -158.375 24.2875 -158.375 -6.3125 C-151.445 -6.3125 -144.515 -6.3125 -137.375 -6.3125 C-137.375 5.2375 -137.375 16.7875 -137.375 28.6875 C-124.505 28.3575 -111.635 28.0275 -98.375 27.6875 C-98.41459995 16.87216757 -98.41459995 16.87216757 -98.46508789 6.05688477 C-98.46800716 4.70589273 -98.47055569 3.35489981 -98.47265625 2.00390625 C-98.47777222 1.29649292 -98.48288818 0.58907959 -98.48815918 -0.13977051 C-98.48847032 -1.86442617 -98.43725761 -3.58896838 -98.375 -5.3125 C-97.375 -6.3125 -97.375 -6.3125 -95.33374023 -6.42602539 C-94.45919189 -6.42078857 -93.58464355 -6.41555176 -92.68359375 -6.41015625 C-91.83337646 -6.40765869 -90.98315918 -6.40516113 -90.10717773 -6.40258789 C-88.47631226 -6.38893188 -88.47631226 -6.38893188 -86.8125 -6.375 C-83.368125 -6.354375 -79.92375 -6.33375 -76.375 -6.3125 C-76.045 2.5975 -75.715 11.5075 -75.375 20.6875 C-73.395 17.3875 -71.415 14.0875 -69.375 10.6875 C-54.11393554 -10.25210008 -21.1472603 -14.01400534 0 0 Z M159.625 -4.3125 C159.295 0.3075 158.965 4.9275 158.625 9.6875 C146.415 10.0175 134.205 10.3475 121.625 10.6875 C121.625 16.9575 121.625 23.2275 121.625 29.6875 C128.555 29.6875 135.485 29.6875 142.625 29.6875 C143.12 38.1025 143.12 38.1025 143.625 46.6875 C136.365 46.6875 129.105 46.6875 121.625 46.6875 C121.625 53.6175 121.625 60.5475 121.625 67.6875 C124.21214844 67.67589844 126.79929687 67.66429688 129.46484375 67.65234375 C131.96020383 67.64455338 134.45556257 67.63847651 136.95092773 67.63256836 C138.69019168 67.62752796 140.42945136 67.6206957 142.16870117 67.61206055 C144.66325937 67.59998208 147.15776173 67.59426892 149.65234375 67.58984375 C150.43463852 67.58468246 151.21693329 67.57952118 152.02293396 67.57420349 C153.89067114 67.57400774 155.75829204 67.62550306 157.625 67.6875 C158.625 68.6875 158.625 68.6875 158.72265625 71.84765625 C158.71105469 73.13542969 158.69945312 74.42320313 158.6875 75.75 C158.67847656 77.04035156 158.66945313 78.33070312 158.66015625 79.66015625 C158.64855469 80.65917969 158.63695312 81.65820312 158.625 82.6875 C162.0547291 79.56527372 164.21816012 76.28201072 166.5234375 72.26953125 C166.88088043 71.6528508 167.23832336 71.03617035 167.6065979 70.40080261 C168.74368254 68.43723321 169.87236682 66.46900986 171 64.5 C172.48310484 61.9209243 173.97106628 59.34470267 175.4609375 56.76953125 C175.81710144 56.14909943 176.17326538 55.5286676 176.54022217 54.88943481 C179.02100006 50.60515189 181.71292121 46.5598477 184.71337891 42.6237793 C186.00372598 39.88308765 185.55732202 38.54607208 184.625 35.6875 C183.59110991 33.67001812 182.47608965 31.69322288 181.30859375 29.75 C180.97384537 29.18861328 180.63909698 28.62722656 180.29420471 28.04882812 C179.22374146 26.25755766 178.14326708 24.47256818 177.0625 22.6875 C176.36328173 21.5199206 175.66470864 20.35195458 174.96679688 19.18359375 C173.22402245 16.27163938 171.46822903 13.36783768 169.70574951 10.46777344 C168.96532276 9.24809944 168.2266816 8.02734019 167.48956299 6.80566406 C166.38334993 4.97240621 165.27238041 3.14211561 164.16015625 1.3125 C163.50539307 0.23226563 162.85062988 -0.84796875 162.17602539 -1.9609375 C161.66418701 -2.73695312 161.15234863 -3.51296875 160.625 -4.3125 C160.295 -4.3125 159.965 -4.3125 159.625 -4.3125 Z M-49.8125 18.9375 C-56.52385614 27.30296816 -57.45300314 35.01771889 -56.375 45.6875 C-54.50525718 53.15534185 -49.69959142 59.98463036 -43.15625 64.07421875 C-35.81530738 67.47059642 -27.56747257 68.13674234 -19.7578125 65.95703125 C-11.98545805 62.75126216 -6.87948141 58.14761777 -3.3515625 50.5 C-0.34112536 41.82994103 -0.53710058 32.62039076 -4.49609375 24.34375 C-8.38269031 17.73763687 -14.01378966 13.43525457 -21.328125 11.05078125 C-32.24791534 9.11272686 -42.04455315 10.74507518 -49.8125 18.9375 Z " fill="#7D8D6E" transform="translate(158.375,7.3125)"/>
<path d="M0 0 C0.66 0 1.32 0 2 0 C2.495 0.886875 2.99 1.77375 3.5 2.6875 C6.48800899 7.31232274 10.87266593 9.33784225 16 11 C24.28932188 12.35246831 31.1426968 10.86931438 38 6 C39.89224582 4.0988495 41.39261401 2.15992492 43 0 C43.66 0 44.32 0 45 0 C43.97510411 8.07105514 41.08567347 12.60664168 35 18 C29.09662352 21.74637353 22.79671375 21.78736897 16 21 C9.23183687 19.20344251 5.54026861 14.83445584 2 9 C0.24128128 5.48256256 0 4.03537742 0 0 Z " fill="#819172" transform="translate(107,47)"/>
<path d="M0 0 C26.4 0 52.8 0 80 0 C79.67 0.66 79.34 1.32 79 2 C72.07 1.67 65.14 1.34 58 1 C57.71082605 6.2203066 57.71082605 6.2203066 57.43188477 11.44116211 C57.11111111 16.88888889 57.11111111 16.88888889 56 18 C53.26105915 18.08858646 50.5474673 18.11523479 47.80859375 18.09765625 C46.98875504 18.0962413 46.16891632 18.09482635 45.32423401 18.09336853 C42.69528618 18.08775289 40.06642227 18.07519779 37.4375 18.0625 C35.65950643 18.05748701 33.88151154 18.05292376 32.10351562 18.04882812 C27.73564455 18.03777839 23.36783652 18.02050331 19 18 C19 17.67 19 17.34 19 17 C31.01186999 16.38651683 42.96990617 15.86633229 55 16 C55 11.05 55 6.1 55 1 C27.775 1.495 27.775 1.495 0 2 C0 1.34 0 0.68 0 0 Z " fill="#889879" transform="translate(261,0)"/>
<path d="M0 0 C0.66 0.33 1.32 0.66 2 1 C1.98839844 1.91523437 1.97679687 2.83046875 1.96484375 3.7734375 C1.95582031 4.96195312 1.94679688 6.15046875 1.9375 7.375 C1.92589844 8.55835937 1.91429687 9.74171875 1.90234375 10.9609375 C1.78533407 13.91921521 1.78533407 13.91921521 3 16 C8.94 16.33 14.88 16.66 21 17 C21 17.33 21 17.66 21 18 C-3.42 18 -27.84 18 -53 18 C-53 17.67 -53 17.34 -53 17 C-35.3229887 16.25344757 -17.69261905 15.8612948 0 16 C0 10.72 0 5.44 0 0 Z " fill="#ADBAA5" transform="translate(316,75)"/>
<path d="M0 0 C3.11257569 3.11257569 4.9340406 5.28127309 7 9 C7.40992188 8.3503125 7.81984375 7.700625 8.2421875 7.03125 C8.78101563 6.1959375 9.31984375 5.360625 9.875 4.5 C10.40867187 3.6646875 10.94234375 2.829375 11.4921875 1.96875 C11.98976563 1.3190625 12.48734375 0.669375 13 0 C13.66 0 14.32 0 15 0 C15 4.95 15 9.9 15 15 C14.01 15 13.02 15 12 15 C11.67 12.69 11.34 10.38 11 8 C9.515 10.475 9.515 10.475 8 13 C5 12 5 12 3 9 C2.67 10.98 2.34 12.96 2 15 C1.34 15 0.68 15 0 15 C0 10.05 0 5.1 0 0 Z " fill="#8A8A8A" transform="translate(0,100)"/>
<path d="M0 0 C0.8971875 0.309375 0.8971875 0.309375 1.8125 0.625 C2.4375 2.4375 2.4375 2.4375 2.8125 4.625 C1.8225 6.11 1.8225 6.11 0.8125 7.625 C1.4725 7.625 2.1325 7.625 2.8125 7.625 C3.8025 7.625 4.7925 7.625 5.8125 7.625 C5.8125 9.935 5.8125 12.245 5.8125 14.625 C4.02116022 14.67891993 2.22936101 14.71775571 0.4375 14.75 C-0.56023437 14.77320312 -1.55796875 14.79640625 -2.5859375 14.8203125 C-5.1875 14.625 -5.1875 14.625 -7.1875 12.625 C-6.82068342 9.69046739 -6.32312754 8.76062754 -4.1875 6.625 C-4.50791397 4.02219432 -4.50791397 4.02219432 -5.1875 1.625 C-2.1875 -0.375 -2.1875 -0.375 0 0 Z M-3.1875 2.625 C-2.1975 4.11 -2.1975 4.11 -1.1875 5.625 C-0.5275 4.635 0.1325 3.645 0.8125 2.625 C-0.5075 2.625 -1.8275 2.625 -3.1875 2.625 Z M-3.1875 8.625 C-3.5175 9.945 -3.8475 11.265 -4.1875 12.625 C-2.5375 12.625 -0.8875 12.625 0.8125 12.625 C0.1525 11.305 -0.5075 9.985 -1.1875 8.625 C-1.8475 8.625 -2.5075 8.625 -3.1875 8.625 Z " fill="#848484" transform="translate(112.1875,100.375)"/>
<path d="M0 0 C0.33 0.99 0.66 1.98 1 3 C0.36191406 2.98839844 -0.27617187 2.97679688 -0.93359375 2.96484375 C-1.75988281 2.95582031 -2.58617187 2.94679688 -3.4375 2.9375 C-4.26121094 2.92589844 -5.08492187 2.91429688 -5.93359375 2.90234375 C-7.99163938 2.76732652 -7.99163938 2.76732652 -9 4 C-9.04092937 6.33297433 -9.04241723 8.66705225 -9 11 C-6.69 11.33 -4.38 11.66 -2 12 C-2 10.02 -2 8.04 -2 6 C-1.01 6 -0.02 6 1 6 C1 8.31 1 10.62 1 13 C-2.21616524 14.60808262 -5.52155272 14.60375416 -9 14 C-11.5625 11.875 -11.5625 11.875 -13 9 C-13.08027379 5.06658433 -12.4616714 3.52956425 -9.875 0.5625 C-6.15738677 -1.45794197 -4.03970096 -0.95051787 0 0 Z " fill="#8F8F8F" transform="translate(157,101)"/>
<path d="M0 0 C2 2 2 2 2.125 4.625 C2.08375 5.40875 2.0425 6.1925 2 7 C-0.31 7.33 -2.62 7.66 -5 8 C-2.69 8 -0.38 8 2 8 C2 8.66 2 9.32 2 10 C-0.79870027 11.39935013 -2.90498792 11.25265405 -6 11 C-7.875 9.8125 -7.875 9.8125 -9 8 C-9.42822025 5.14519831 -9.40659584 3.65507108 -7.875 1.1875 C-5.16554166 -0.52849028 -3.13704316 -0.333728 0 0 Z M-5 2 C-5.33 2.66 -5.66 3.32 -6 4 C-4.02 4 -2.04 4 0 4 C-0.66 3.34 -1.32 2.68 -2 2 C-2.99 2 -3.98 2 -5 2 Z " fill="#929292" transform="translate(338,104)"/>
<path d="M0 0 C2 3 2 3 2 7 C-0.31 7.33 -2.62 7.66 -5 8 C-2.69 8 -0.38 8 2 8 C2 8.66 2 9.32 2 10 C-0.79870027 11.39935013 -2.90498792 11.25265405 -6 11 C-7.875 9.8125 -7.875 9.8125 -9 8 C-9.42822025 5.14519831 -9.40659584 3.65507108 -7.875 1.1875 C-5.14012639 -0.54458662 -3.16259871 -0.40373601 0 0 Z M-5 2 C-5.33 2.66 -5.66 3.32 -6 4 C-4.35 4 -2.7 4 -1 4 C-1.33 3.34 -1.66 2.68 -2 2 C-2.99 2 -3.98 2 -5 2 Z " fill="#7F7F7F" transform="translate(219,104)"/>
<path d="M0 0 C2 2 2 2 2.125 4.625 C2.08375 5.40875 2.0425 6.1925 2 7 C-0.31 7.33 -2.62 7.66 -5 8 C-2.69 8 -0.38 8 2 8 C2 8.66 2 9.32 2 10 C-0.79870027 11.39935013 -2.90498792 11.25265405 -6 11 C-7.875 9.8125 -7.875 9.8125 -9 8 C-9.42822025 5.14519831 -9.40659584 3.65507108 -7.875 1.1875 C-5.16554166 -0.52849028 -3.13704316 -0.333728 0 0 Z M-5 2 C-5.33 2.66 -5.66 3.32 -6 4 C-4.02 4 -2.04 4 0 4 C-0.66 3.34 -1.32 2.68 -2 2 C-2.99 2 -3.98 2 -5 2 Z " fill="#7E7E7E" transform="translate(58,104)"/>
<path d="M0 0 C0.33 1.98 0.66 3.96 1 6 C-1.31 6.33 -3.62 6.66 -6 7 C-4.02 7 -2.04 7 0 7 C-0.33 7.99 -0.66 8.98 -1 10 C-6.34965035 10.35664336 -6.34965035 10.35664336 -8.9375 8.9375 C-10.64787795 5.81857551 -9.80513863 3.34442199 -9 0 C-5.93109813 -1.53445094 -3.29905734 -0.54984289 0 0 Z M-6 1 C-6.33 1.66 -6.66 2.32 -7 3 C-5.35 3 -3.7 3 -2 3 C-2.33 2.34 -2.66 1.68 -3 1 C-3.99 1 -4.98 1 -6 1 Z " fill="#818181" transform="translate(198,105)"/>
<path d="M0 0 C0.33 1.98 0.66 3.96 1 6 C-1.31 6.33 -3.62 6.66 -6 7 C-3.69 7 -1.38 7 1 7 C1 7.66 1 8.32 1 9 C-1.79870027 10.39935013 -3.90498792 10.25265405 -7 10 C-8.875 8.8125 -8.875 8.8125 -10 7 C-10.42674516 4.15503228 -10.36066991 2.63647631 -8.9375 0.125 C-5.88430685 -1.64782183 -3.33588292 -0.69235306 0 0 Z M-6 1 C-6.33 1.66 -6.66 2.32 -7 3 C-5.35 3 -3.7 3 -2 3 C-2.33 2.34 -2.66 1.68 -3 1 C-3.99 1 -4.98 1 -6 1 Z " fill="#818181" transform="translate(37,105)"/>
<path d="M0 0 C0.66 0 1.32 0 2 0 C2.8353125 1.36125 2.8353125 1.36125 3.6875 2.75 C6.48453671 6.68097051 8.74277128 7.87138564 13 10 C12.67 10.99 12.34 11.98 12 13 C11.34 13 10.68 13 10 13 C10 14.32 10 15.64 10 17 C5.15952045 14.96679217 3.21009087 11.62789704 1 7 C0.37756976 4.59597595 0.15586499 2.49383987 0 0 Z " fill="#859475" transform="translate(107,47)"/>
<path d="M0 0 C0.66 0.33 1.32 0.66 2 1 C2.02685412 3.31243792 2.04632841 5.6249627 2.0625 7.9375 C2.07410156 9.22527344 2.08570313 10.51304688 2.09765625 11.83984375 C2 15 2 15 1 16 C-1.73894085 16.08858646 -4.4525327 16.11523479 -7.19140625 16.09765625 C-8.01124496 16.0962413 -8.83108368 16.09482635 -9.67576599 16.09336853 C-12.30471382 16.08775289 -14.93357773 16.07519779 -17.5625 16.0625 C-19.34049357 16.05748701 -21.11848846 16.05292376 -22.89648438 16.04882812 C-27.26435545 16.03777839 -31.63216348 16.02050331 -36 16 C-36 15.67 -36 15.34 -36 15 C-23.98813001 14.38651683 -12.03009383 13.86633229 0 14 C0 9.38 0 4.76 0 0 Z " fill="#AEB6A5" transform="translate(316,2)"/>
<path d="M0 0 C1.66342837 1.66342837 1.36048097 3.7825709 1.5625 6.0625 C1.64628906 6.98160156 1.73007812 7.90070313 1.81640625 8.84765625 C1.87699219 9.55792969 1.93757813 10.26820312 2 11 C-0.97 11 -3.94 11 -7 11 C-7.625 8.625 -7.625 8.625 -8 6 C-5.8614515 3.8614515 -4.86724686 3.57344937 -2 3 C-3.98 3 -5.96 3 -8 3 C-8 2.34 -8 1.68 -8 1 C-5.26752652 -0.36623674 -3.01801098 -0.128426 0 0 Z M-6 7 C-6 7.66 -6 8.32 -6 9 C-4.35 8.67 -2.7 8.34 -1 8 C-1 7.67 -1 7.34 -1 7 C-2.65 7 -4.3 7 -6 7 Z " fill="#737373" transform="translate(299,104)"/>
<path d="M0 0 C1.0828125 0.37125 1.0828125 0.37125 2.1875 0.75 C2.1875 1.74 2.1875 2.73 2.1875 3.75 C1.218125 3.729375 0.24875 3.70875 -0.75 3.6875 C-3.68715895 3.39381501 -3.68715895 3.39381501 -4.8125 4.75 C-4.85330783 6.74958364 -4.85504356 8.75045254 -4.8125 10.75 C-0.33116426 11.47256829 -0.33116426 11.47256829 4.1875 11.75 C3.8575 12.74 3.5275 13.73 3.1875 14.75 C-4.08198775 15.35579065 -4.08198775 15.35579065 -7.375 12.625 C-8.8125 9.75 -8.8125 9.75 -8.875 6.6875 C-7.25933813 2.22067013 -4.95503677 -0.44044771 0 0 Z " fill="#868686" transform="translate(274.8125,100.25)"/>
<path d="M0 0 C0.66 0 1.32 0 2 0 C2 4.95 2 9.9 2 15 C1.01 15 0.02 15 -1 15 C-1.22786458 13.01432292 -1.45572917 11.02864583 -1.68359375 9.04296875 C-1.97170735 6.80603607 -1.97170735 6.80603607 -3 4 C-1.6875 1.8125 -1.6875 1.8125 0 0 Z " fill="#939393" transform="translate(13,100)"/>
<path d="M0 0 C0.99 0 1.98 0 3 0 C3 0.66 3 1.32 3 2 C3.99 2 4.98 2 6 2 C6 2.66 6 3.32 6 4 C5.01 4 4.02 4 3 4 C3 6.31 3 8.62 3 11 C4.32 11 5.64 11 7 11 C7 11.66 7 12.32 7 13 C4.625 13.125 4.625 13.125 2 13 C0 11 0 11 -0.125 8.125 C-0.08375 7.09375 -0.0425 6.0625 0 5 C0 3.68 0 2.36 0 1 C0 0.67 0 0.34 0 0 Z " fill="#8C8C8C" transform="translate(233,102)"/>
<path d="M0 0 C2.0625 0.4375 2.0625 0.4375 4 1 C4 1.66 4 2.32 4 3 C2.68 3 1.36 3 0 3 C0 3.66 0 4.32 0 5 C0.99 5 1.98 5 3 5 C3 5.66 3 6.32 3 7 C2.01 7 1.02 7 0 7 C0 9.97 0 12.94 0 16 C-0.66 16 -1.32 16 -2 16 C-2 13.03 -2 10.06 -2 7 C-2.66 7 -3.32 7 -4 7 C-4 6.34 -4 5.68 -4 5 C-3.34 5 -2.68 5 -2 5 C-1.7834375 4.0409375 -1.7834375 4.0409375 -1.5625 3.0625 C-1 1 -1 1 0 0 Z " fill="#7D7D7D" transform="translate(316,99)"/>
<path d="M0 0 C0.87454834 0.00523682 1.74909668 0.01047363 2.65014648 0.01586914 C3.59438477 0.0190918 4.53862305 0.02231445 5.51147461 0.02563477 C6.50469727 0.03401367 7.49791992 0.04239258 8.52124023 0.05102539 C9.51833008 0.05553711 10.51541992 0.06004883 11.54272461 0.06469727 C14.01478872 0.07652532 16.48673541 0.0930069 18.95874023 0.11352539 C18.29874023 1.76352539 17.63874023 3.41352539 16.95874023 5.11352539 C16.29874023 4.12352539 15.63874023 3.13352539 14.95874023 2.11352539 C11.83316064 1.74822307 11.83316064 1.74822307 8.33374023 1.92602539 C7.14522461 1.9530957 5.95670898 1.98016602 4.73217773 2.00805664 C3.35932617 2.06026367 3.35932617 2.06026367 1.95874023 2.11352539 C1.62874023 2.77352539 1.29874023 3.43352539 0.95874023 4.11352539 C-1.10375977 4.73852539 -1.10375977 4.73852539 -3.04125977 5.11352539 C-3.04125977 0.16914075 -3.04125977 0.16914075 0 0 Z " fill="#869579" transform="translate(376.041259765625,-0.113525390625)"/>
<path d="M0 0 C0.99 0 1.98 0 3 0 C3 2.31 3 4.62 3 7 C0.77109005 8.11445498 -0.53055106 8.16480286 -3 8.1875 C-4.051875 8.20876953 -4.051875 8.20876953 -5.125 8.23046875 C-7 8 -7 8 -9 6 C-9 5.01 -9 4.02 -9 3 C-8.34 3 -7.68 3 -7 3 C-7 3.66 -7 4.32 -7 5 C-4.69 5.33 -2.38 5.66 0 6 C0 4.02 0 2.04 0 0 Z " fill="#858585" transform="translate(155,107)"/>
<path d="M0 0 C0.66 0 1.32 0 2 0 C2 0.66 2 1.32 2 2 C2.99 2 3.98 2 5 2 C5 2.66 5 3.32 5 4 C4.01 4 3.02 4 2 4 C2 6.31 2 8.62 2 11 C3.32 11 4.64 11 6 11 C6 11.66 6 12.32 6 13 C4.33388095 13.042721 2.66617115 13.04063832 1 13 C0 12 0 12 -0.09765625 10.15234375 C-0.06510417 8.1015625 -0.03255208 6.05078125 0 4 C-0.66 4 -1.32 4 -2 4 C-2 3.34 -2 2.68 -2 2 C-1.34 2 -0.68 2 0 2 C0 1.34 0 0.68 0 0 Z " fill="#7C7C7C" transform="translate(73,102)"/>
<path d="M0 0 C0.66 0.33 1.32 0.66 2 1 C0.50958227 4.79379058 -1.69062512 6.68343758 -5 9 C-5.66 9 -6.32 9 -7 9 C-7 9.66 -7 10.32 -7 11 C-7.99 10.67 -8.98 10.34 -10 10 C-3.84965831 2.51708428 -3.84965831 2.51708428 0 0 Z " fill="#8E9C7F" transform="translate(99,8)"/>
<path d="M0 0 C1.98 0 3.96 0 6 0 C6 0.66 6 1.32 6 2 C5.505 2.4125 5.01 2.825 4.5 3.25 C2.34152142 5.76822501 2.78625039 7.79375585 3 11 C2.01 11 1.02 11 0 11 C0 7.37 0 3.74 0 0 Z " fill="#8D8D8D" transform="translate(171,104)"/>
<path d="M0 0 C0.33 0.66 0.66 1.32 1 2 C-0.98 2.33 -2.96 2.66 -5 3 C-3.35 3.33 -1.7 3.66 0 4 C0 4.33 0 4.66 0 5 C-1.11375 4.938125 -2.2275 4.87625 -3.375 4.8125 C-5.169375 4.9053125 -5.169375 4.9053125 -7 5 C-7.66 5.99 -8.32 6.98 -9 8 C-9.22223194 5.25913944 -9.34781139 3.56036279 -7.875 1.1875 C-5.22464043 -0.49106106 -3.06753576 -0.20450238 0 0 Z " fill="#999999" transform="translate(58,104)"/>
<path d="M0 0 C0.33 1.32 0.66 2.64 1 4 C0.01 4.66 -0.98 5.32 -2 6 C-2 5.01 -2 4.02 -2 3 C-2.99 2.67 -3.98 2.34 -5 2 C-5 2.99 -5 3.98 -5 5 C-5.66 5 -6.32 5 -7 5 C-6.625 2.5625 -6.625 2.5625 -6 0 C-3.50907189 -1.24546405 -2.58919267 -0.7767578 0 0 Z " fill="#909090" transform="translate(114,101)"/>
<path d="M0 0 C0.66 0 1.32 0 2 0 C1.71872579 1.48117801 1.42466268 2.95993249 1.125 4.4375 C0.96257812 5.26121094 0.80015625 6.08492187 0.6328125 6.93359375 C0.42398438 7.61550781 0.21515625 8.29742187 0 9 C-0.99 9.495 -0.99 9.495 -2 10 C-2 9.01 -2 8.02 -2 7 C-3.32 7.33 -4.64 7.66 -6 8 C-5.04956626 6.66102417 -4.08940853 5.32894573 -3.125 4 C-2.59132812 3.2575 -2.05765625 2.515 -1.5078125 1.75 C-1.01023438 1.1725 -0.51265625 0.595 0 0 Z " fill="#9DA692" transform="translate(150,47)"/>
<path d="M0 0 C-0.33 1.32 -0.66 2.64 -1 4 C-3.31 4 -5.62 4 -8 4 C-8.33 2.68 -8.66 1.36 -9 0 C-5.93109813 -1.53445094 -3.29905734 -0.54984289 0 0 Z M-6 1 C-6.33 1.66 -6.66 2.32 -7 3 C-5.35 3 -3.7 3 -2 3 C-2.33 2.34 -2.66 1.68 -3 1 C-3.99 1 -4.98 1 -6 1 Z " fill="#979797" transform="translate(198,105)"/>
<path d="M0 0 C0.763125 0.20625 1.52625 0.4125 2.3125 0.625 C2.3125 1.615 2.3125 2.605 2.3125 3.625 C0.95125 3.563125 0.95125 3.563125 -0.4375 3.5 C-3.5657046 3.62031556 -5.07364006 4.0164708 -7.6875 5.625 C-6.02612914 1.79106724 -4.59035464 -0.6405146 0 0 Z " fill="#7B7B7B" transform="translate(274.6875,100.375)"/>
<path d="M0 0 C2.875 -0.125 2.875 -0.125 6 0 C8 2 8 2 8 6 C5.03 6 2.06 6 -1 6 C-1 5.67 -1 5.34 -1 5 C1.31 5 3.62 5 6 5 C6 4.34 6 3.68 6 3 C4.02 2.34 2.04 1.68 0 1 C0 0.67 0 0.34 0 0 Z " fill="#7F7F7F" transform="translate(332,104)"/>
<path d="M0 0 C0.33 0.99 0.66 1.98 1 3 C0.67 3.66 0.34 4.32 0 5 C-1.98 5 -3.96 5 -6 5 C-4.68 4.34 -3.36 3.68 -2 3 C-3.98 3 -5.96 3 -8 3 C-8 2.34 -8 1.68 -8 1 C-5.29120665 -0.35439668 -2.99066732 -0.06501451 0 0 Z " fill="#919191" transform="translate(299,104)"/>
<path d="M0 0 C0.66 0 1.32 0 2 0 C3.32 2.31 4.64 4.62 6 7 C5.34 7 4.68 7 4 7 C3.67 8.32 3.34 9.64 3 11 C0 4.5 0 4.5 0 0 Z " fill="#929D87" transform="translate(107,47)"/>
<path d="M0 0 C2.31 0.33 4.62 0.66 7 1 C6.67 2.32 6.34 3.64 6 5 C3.69 5 1.38 5 -1 5 C-0.67 3.35 -0.34 1.7 0 0 Z M1 2 C0.67 2.66 0.34 3.32 0 4 C1.65 4 3.3 4 5 4 C4.67 3.34 4.34 2.68 4 2 C3.01 2 2.02 2 1 2 Z " fill="#9A9A9A" transform="translate(30,104)"/>
<path d="M0 0 C-1.77945087 4.04420651 -4.39529673 7.46078487 -7 11 C-7.67578125 9.234375 -7.67578125 9.234375 -8 7 C-6.85546875 5.078125 -6.85546875 5.078125 -5.1875 3.25 C-4.64480469 2.63640625 -4.10210937 2.0228125 -3.54296875 1.390625 C-2 0 -2 0 0 0 Z " fill="#8C997F" transform="translate(112,22)"/>
<path d="M0 0 C0.66 0 1.32 0 2 0 C1.34 1.98 0.68 3.96 0 6 C-1.32 6 -2.64 6 -4 6 C-4.33 4.35 -4.66 2.7 -5 1 C-3.515 1.99 -3.515 1.99 -2 3 C-1.34 2.01 -0.68 1.02 0 0 Z " fill="#777777" transform="translate(9,106)"/>
<path d="M0 0 C1.98 0 3.96 0 6 0 C6.33 0.99 6.66 1.98 7 3 C6.67 3.66 6.34 4.32 6 5 C3.69 5 1.38 5 -1 5 C-0.67 4.34 -0.34 3.68 0 3 C1.32 3 2.64 3 4 3 C2.68 2.01 1.36 1.02 0 0 Z " fill="#9F9F9F" transform="translate(213,104)"/>
<path d="M0 0 C0.33 0 0.66 0 1 0 C1.25 2.8125 1.25 2.8125 1 6 C-1 7.875 -1 7.875 -3 9 C-3.66 8.67 -4.32 8.34 -5 8 C-3.57841235 5.15682469 -1.81330318 2.60662332 0 0 Z " fill="#92A085" transform="translate(232,49)"/>
<path d="M0 0 C3.2910841 3.60957611 4.54663921 6.12637153 5 11 C1.7089159 7.39042389 0.45336079 4.87362847 0 0 Z " fill="#909B83" transform="translate(333,24)"/>
<path d="M0 0 C1.98 0 3.96 0 6 0 C6.66 1.65 7.32 3.3 8 5 C6.68 5 5.36 5 4 5 C4 4.01 4 3.02 4 2 C2.68 1.34 1.36 0.68 0 0 Z " fill="#8F8F8F" transform="translate(293,110)"/>
<path d="M0 0 C0.66 0 1.32 0 2 0 C1.34 2.97 0.68 5.94 0 9 C-0.66 8.01 -1.32 7.02 -2 6 C-1.125 2.8125 -1.125 2.8125 0 0 Z " fill="#8B987B" transform="translate(102,33)"/>
<path d="M0 0 C0.33 0 0.66 0 1 0 C1.3125 2.3125 1.3125 2.3125 1 5 C-1.5 6.8125 -1.5 6.8125 -4 8 C-2.87548273 5.0280615 -1.77706209 2.66559313 0 0 Z " fill="#939F86" transform="translate(368,9)"/>
</svg>
