<svg xmlns="http://www.w3.org/2000/svg" xmlns:xlink="http://www.w3.org/1999/xlink" width="1024" zoomAndPan="magnify" viewBox="0 0 768 576" height="1024" preserveAspectRatio="xMidYMid meet" version="1.0"><defs><clipPath id="a9fbd72073"><path d="M 181.570312 277.726562 L 586.570312 277.726562 L 586.570312 489.976562 L 181.570312 489.976562 Z M 181.570312 277.726562 " clip-rule="nonzero"/></clipPath></defs><g clip-path="url(#a9fbd72073)"><path fill="#d9d9d9" d="M 579.488281 289.453125 L 554.125 406.855469 C 553.78125 408.4375 553.609375 410.0625 553.609375 411.683594 L 553.609375 483.503906 L 537.613281 483.503906 L 537.613281 410.703125 C 537.613281 407.234375 534.792969 404.414062 531.324219 404.414062 L 502.519531 404.414062 L 502.519531 388.414062 L 530.199219 388.414062 C 534.023438 388.414062 537.390625 385.707031 538.207031 381.972656 L 559.21875 285.753906 C 559.265625 285.53125 559.476562 285.382812 559.710938 285.425781 L 579.144531 288.945312 C 579.261719 288.964844 579.355469 289.027344 579.421875 289.125 C 579.492188 289.226562 579.511719 289.332031 579.488281 289.453125 Z M 495.894531 483.503906 L 482.820312 483.503906 L 482.820312 408.597656 C 482.894531 408.316406 482.941406 408.03125 482.941406 407.726562 C 482.941406 407.421875 482.894531 407.132812 482.820312 406.851562 L 482.820312 385.972656 C 482.894531 385.695312 482.9375 385.40625 482.9375 385.101562 C 482.9375 384.804688 482.894531 384.515625 482.820312 384.238281 L 482.820312 338.929688 C 482.820312 337.101562 481.339844 335.617188 479.507812 335.617188 L 288.269531 335.617188 C 286.441406 335.617188 284.957031 337.101562 284.957031 338.929688 L 284.957031 483.503906 L 271.882812 483.503906 L 271.882812 385.125 C 271.882812 385.117188 271.882812 385.109375 271.882812 385.101562 C 271.882812 385.097656 271.882812 385.09375 271.882812 385.085938 L 271.882812 320.8125 L 495.894531 320.8125 Z M 324.308594 388.414062 C 326.203125 388.414062 327.816406 389.773438 328.140625 391.644531 L 343.960938 483.503906 L 328.070312 483.503906 L 315.519531 409.648438 C 315.003906 406.613281 312.398438 404.414062 309.324219 404.414062 L 291.585938 404.414062 L 291.585938 388.414062 Z M 298.277344 284.582031 L 355.566406 284.582031 C 353.917969 298.925781 341.703125 310.105469 326.921875 310.105469 C 312.144531 310.105469 299.925781 298.925781 298.277344 284.582031 Z M 412.210938 284.582031 L 469.5 284.582031 C 467.851562 298.925781 455.636719 310.105469 440.855469 310.105469 C 426.078125 310.105469 413.859375 298.925781 412.210938 284.582031 Z M 476.195312 404.414062 L 458.574219 404.414062 C 455.496094 404.414062 452.894531 406.613281 452.375 409.648438 L 439.828125 483.503906 L 423.9375 483.503906 L 439.757812 391.644531 C 440.082031 389.773438 441.691406 388.414062 443.589844 388.414062 L 476.195312 388.414062 Z M 265.261719 404.414062 L 236.574219 404.414062 C 233.105469 404.414062 230.28125 407.234375 230.28125 410.703125 L 230.28125 483.503906 L 214.289062 483.503906 L 214.289062 411.683594 C 214.289062 410.0625 214.113281 408.4375 213.773438 406.855469 L 188.410156 289.453125 C 188.386719 289.332031 188.40625 289.226562 188.476562 289.125 C 188.539062 289.027344 188.632812 288.964844 188.75 288.945312 L 208.1875 285.425781 C 208.417969 285.378906 208.628906 285.53125 208.675781 285.753906 L 229.691406 381.972656 C 230.507812 385.707031 233.875 388.414062 237.699219 388.414062 L 265.261719 388.414062 Z M 584.933594 285.445312 C 583.859375 283.839844 582.222656 282.765625 580.328125 282.421875 L 560.890625 278.90625 C 557.132812 278.21875 553.5625 280.613281 552.746094 284.339844 L 531.734375 380.558594 C 531.578125 381.273438 530.933594 381.792969 530.199219 381.792969 L 502.519531 381.792969 L 502.519531 317.5 C 502.519531 315.667969 501.035156 314.1875 499.207031 314.1875 L 454.015625 314.1875 C 467.070312 308.949219 476.3125 296.175781 476.3125 281.269531 C 476.3125 279.441406 474.832031 277.957031 473 277.957031 L 408.710938 277.957031 C 406.878906 277.957031 405.398438 279.441406 405.398438 281.269531 C 405.398438 296.175781 414.644531 308.949219 427.699219 314.1875 L 340.082031 314.1875 C 353.136719 308.949219 362.378906 296.175781 362.378906 281.269531 C 362.378906 279.441406 360.898438 277.957031 359.066406 277.957031 L 294.777344 277.957031 C 292.949219 277.957031 291.460938 279.441406 291.460938 281.269531 C 291.460938 296.175781 300.710938 308.949219 313.765625 314.1875 L 268.574219 314.1875 C 266.742188 314.1875 265.261719 315.667969 265.261719 317.5 L 265.261719 381.792969 L 237.699219 381.792969 C 236.964844 381.792969 236.320312 381.273438 236.164062 380.558594 L 215.152344 284.339844 C 214.335938 280.613281 210.757812 278.21875 207.007812 278.90625 L 187.574219 282.421875 C 185.675781 282.765625 184.042969 283.839844 182.964844 285.445312 C 181.894531 287.042969 181.53125 288.964844 181.933594 290.851562 L 207.296875 408.257812 C 207.542969 409.378906 207.664062 410.535156 207.664062 411.683594 L 207.664062 486.816406 C 207.664062 488.644531 209.148438 490.128906 210.976562 490.128906 L 233.59375 490.128906 C 235.429688 490.128906 236.90625 488.644531 236.90625 486.816406 L 236.90625 411.039062 L 265.261719 411.039062 L 265.261719 486.816406 C 265.261719 488.644531 266.742188 490.128906 268.574219 490.128906 L 288.269531 490.128906 C 290.097656 490.128906 291.585938 488.644531 291.585938 486.816406 L 291.585938 411.039062 L 309.039062 411.039062 L 322.003906 487.367188 C 322.277344 488.964844 323.65625 490.128906 325.269531 490.128906 L 347.894531 490.128906 C 348.867188 490.128906 349.792969 489.695312 350.425781 488.949219 C 351.054688 488.203125 351.324219 487.214844 351.15625 486.253906 L 334.664062 390.519531 C 333.796875 385.460938 329.4375 381.792969 324.308594 381.792969 L 291.585938 381.792969 L 291.585938 342.242188 L 476.195312 342.242188 L 476.195312 381.792969 L 443.589844 381.792969 C 438.460938 381.792969 434.101562 385.460938 433.230469 390.523438 L 416.742188 486.253906 C 416.574219 487.214844 416.84375 488.203125 417.472656 488.949219 C 418.101562 489.695312 419.03125 490.128906 420.003906 490.128906 L 442.628906 490.128906 C 444.242188 490.128906 445.621094 488.964844 445.894531 487.367188 L 458.859375 411.039062 L 476.195312 411.039062 L 476.195312 486.816406 C 476.195312 488.644531 477.675781 490.128906 479.507812 490.128906 L 499.207031 490.128906 C 501.035156 490.128906 502.519531 488.644531 502.519531 486.816406 L 502.519531 411.039062 L 530.992188 411.039062 L 530.992188 486.816406 C 530.992188 488.644531 532.472656 490.128906 534.300781 490.128906 L 556.921875 490.128906 C 558.75 490.128906 560.234375 488.644531 560.234375 486.816406 L 560.234375 411.683594 C 560.234375 410.535156 560.355469 409.378906 560.601562 408.257812 L 585.960938 290.847656 C 586.367188 288.964844 586.003906 287.042969 584.933594 285.445312 " fill-opacity="1" fill-rule="nonzero"/></g></svg>