<svg xmlns="http://www.w3.org/2000/svg" xmlns:xlink="http://www.w3.org/1999/xlink" width="1024" zoomAndPan="magnify" viewBox="0 0 768 576" height="1024" preserveAspectRatio="xMidYMid meet" version="1.0"><defs><clipPath id="8be0bfb7d5"><path d="M 170 188.34375 L 598 188.34375 L 598 576 L 170 576 Z M 170 188.34375 " clip-rule="nonzero"/></clipPath></defs><path fill="#9caf88" d="M 352.910156 232.4375 L 342.890625 257.78125 L 332.867188 232.4375 C 331.425781 228.792969 327.296875 226.984375 323.628906 228.425781 C 319.960938 229.871094 318.179688 234 319.621094 237.667969 L 336.242188 279.753906 C 337.316406 282.46875 339.929688 284.253906 342.863281 284.253906 C 345.796875 284.253906 348.414062 282.46875 349.488281 279.753906 L 366.109375 237.667969 C 367.550781 234.023438 365.765625 229.871094 362.101562 228.425781 C 358.433594 226.984375 354.304688 228.769531 352.859375 232.4375 Z M 352.910156 232.4375 " fill-opacity="1" fill-rule="nonzero"/><path fill="#9caf88" d="M 377.425781 235.050781 L 377.425781 277.140625 C 377.425781 281.074219 380.601562 284.253906 384.539062 284.253906 C 388.472656 284.253906 391.648438 281.074219 391.648438 277.140625 L 391.648438 235.050781 C 391.648438 231.117188 388.472656 227.9375 384.539062 227.9375 C 380.601562 227.9375 377.425781 231.117188 377.425781 235.050781 Z M 377.425781 235.050781 " fill-opacity="1" fill-rule="nonzero"/><path fill="#9caf88" d="M 411.691406 227.9375 C 407.757812 227.9375 404.578125 231.117188 404.578125 235.050781 L 404.578125 277.140625 C 404.578125 281.074219 407.757812 284.253906 411.691406 284.253906 C 415.628906 284.253906 418.804688 281.074219 418.804688 277.140625 L 418.804688 264.234375 L 432.933594 264.234375 C 441.683594 264.234375 448.792969 257.121094 448.792969 248.371094 L 448.792969 243.800781 C 448.792969 235.050781 441.683594 227.9375 432.933594 227.9375 Z M 434.570312 243.800781 L 434.570312 248.371094 C 434.570312 249.277344 433.835938 250.007812 432.933594 250.007812 L 418.804688 250.007812 L 418.804688 242.164062 L 432.933594 242.164062 C 433.835938 242.164062 434.570312 242.898438 434.570312 243.800781 Z M 434.570312 243.800781 " fill-opacity="1" fill-rule="nonzero"/><g clip-path="url(#8be0bfb7d5)"><path fill="#9caf88" d="M 576.015625 259.003906 L 518.894531 259.003906 L 518.894531 209.679688 C 518.894531 197.925781 509.3125 188.34375 497.554688 188.34375 L 486.898438 188.34375 C 482.964844 188.34375 479.785156 191.519531 479.785156 195.457031 C 479.785156 199.390625 482.964844 202.566406 486.898438 202.566406 L 497.554688 202.566406 C 501.46875 202.566406 504.667969 205.769531 504.667969 209.679688 L 504.667969 299.796875 L 263.304688 299.796875 L 263.304688 209.679688 C 263.304688 205.769531 266.507812 202.566406 270.417969 202.566406 L 457.960938 202.566406 C 461.894531 202.566406 465.074219 199.390625 465.074219 195.457031 C 465.074219 191.519531 461.894531 188.34375 457.960938 188.34375 L 270.417969 188.34375 C 258.664062 188.34375 249.082031 197.925781 249.082031 209.679688 L 249.082031 259.003906 L 191.960938 259.003906 C 180.203125 259.003906 170.625 268.585938 170.625 280.34375 L 170.625 558.21875 C 170.625 569.976562 180.203125 579.558594 191.960938 579.558594 L 576.015625 579.558594 C 587.769531 579.558594 597.351562 569.976562 597.351562 558.21875 L 597.351562 334.96875 C 597.351562 331.035156 594.175781 327.855469 590.238281 327.855469 C 586.304688 327.855469 583.125 331.035156 583.125 334.96875 L 583.125 558.21875 C 583.125 562.128906 579.925781 565.332031 576.015625 565.332031 L 391.089844 565.332031 L 391.089844 314.023438 L 542.308594 314.023438 L 542.308594 537.761719 C 542.308594 541.699219 545.488281 544.875 549.421875 544.875 C 553.355469 544.875 556.535156 541.699219 556.535156 537.761719 L 556.535156 314.023438 C 556.535156 306.175781 550.15625 299.796875 542.308594 299.796875 L 518.871094 299.796875 L 518.871094 273.230469 L 575.988281 273.230469 C 579.902344 273.230469 583.101562 276.429688 583.101562 280.34375 L 583.101562 306.910156 C 583.101562 310.84375 586.28125 314.023438 590.214844 314.023438 C 594.148438 314.023438 597.328125 310.84375 597.328125 306.910156 L 597.328125 280.34375 C 597.328125 268.585938 587.746094 259.003906 575.988281 259.003906 Z M 376.886719 565.332031 L 225.640625 565.332031 L 225.640625 367.085938 C 225.640625 363.152344 222.464844 359.972656 218.527344 359.972656 C 214.59375 359.972656 211.417969 363.152344 211.417969 367.085938 L 211.417969 565.332031 L 191.960938 565.332031 C 188.050781 565.332031 184.847656 562.128906 184.847656 558.21875 L 184.847656 280.34375 C 184.847656 276.429688 188.050781 273.230469 191.960938 273.230469 L 249.082031 273.230469 L 249.082031 299.796875 L 225.640625 299.796875 C 217.796875 299.796875 211.417969 306.175781 211.417969 314.023438 L 211.417969 338.171875 C 211.417969 342.105469 214.59375 345.285156 218.527344 345.285156 C 222.464844 345.285156 225.640625 342.105469 225.640625 338.171875 L 225.640625 314.023438 L 376.863281 314.023438 L 376.863281 565.308594 Z M 376.886719 565.332031 " fill-opacity="1" fill-rule="nonzero"/></g><path fill="#9caf88" d="M 351.445312 446.789062 C 355.378906 446.789062 358.554688 443.613281 358.554688 439.675781 L 358.554688 411.277344 C 358.554688 407.339844 355.378906 404.164062 351.445312 404.164062 C 347.507812 404.164062 344.332031 407.339844 344.332031 411.277344 L 344.332031 439.675781 C 344.332031 443.613281 347.507812 446.789062 351.445312 446.789062 Z M 351.445312 446.789062 " fill-opacity="1" fill-rule="nonzero"/><path fill="#9caf88" d="M 409.417969 411.277344 L 409.417969 439.675781 C 409.417969 443.613281 412.597656 446.789062 416.53125 446.789062 C 420.46875 446.789062 423.644531 443.613281 423.644531 439.675781 L 423.644531 411.277344 C 423.644531 407.339844 420.46875 404.164062 416.53125 404.164062 C 412.597656 404.164062 409.417969 407.339844 409.417969 411.277344 Z M 409.417969 411.277344 " fill-opacity="1" fill-rule="nonzero"/></svg>